# xmcd
#
# Track frame offsets: 
#        150
#        29179
#        53899
#        82921
#        108295
#        136258
#        163013
#        193068
#        217105
#
# Disc length: 3257 seconds
#
# Revision: 0
# Processed by: cddbd v1.5.2PL0 Copyright (c) Steve Scherf et al.
# Submitted via: ExactAudioCopy v0.99pb3
#
DISCID=7f0cb709
DTITLE=Five Feathers Music - Band In A Pocket
DYEAR=1999
DGENRE=Blues
TTITLE0=Tune-Up Notes (A)
TTITLE1=Upper East Side Shuffle (A)
TTITLE2=Beepin' Blues (E)
TTITLE3=Minor Blues (B minor)
TTITLE4=All Right Shuffle (F)
TTITLE5=ZZ Shuffle (A)
TTITLE6=6/8 Blues (G)
TTITLE7=Basement Blues (G)
TTITLE8=Hometowm Blues (C)
EXTD=
EXTT0=
EXTT1=
EXTT2=
EXTT3=
EXTT4=
EXTT5=
EXTT6=
EXTT7=
EXTT8=
PLAYORDER=
